<?xml version="1.0" encoding="utf-8"?>
<!-- Generator: Adobe Illustrator 23.0.3, SVG Export Plug-In . SVG Version: 6.00 Build 0)  -->
<svg version="1.1" id="图层_1" xmlns="http://www.w3.org/2000/svg" x="0px" y="0px"
        width="88px" height="88px" viewBox="0 0 88 88" style="enable-background:new 0 0 88 88;"
        xml:space="preserve">
<style type="text/css">
	.st0{fill:none;}
	.st1{enable-background:new    ;}
	.st2{fill:#00A4FF;}
	.st3{fill-rule:evenodd;clip-rule:evenodd;fill:#00A4FF;}
</style>
    <title>API网关</title>
    <desc>Created with Sketch.</desc>
    <g id="Page-1">
	<g transform="translate(-708.000000, -525.000000)">
		<g id="API网关" transform="translate(708.000000, 525.000000)">
			<polygon id="Rectangle" class="st0" points="10,0 78,0 78,88 10,88 			"/>
            <g class="st1">
				<path class="st2"
                        d="M32.3,16h-1.9l-0.8-2h-3.4l-0.7,2h-1.8L27,7.4h1.8L32.3,16z M29.1,12.6l-1.2-3.2l-1.2,3.2H29.1z"/>
                <path class="st2" d="M33.2,16V7.4H36c1.1,0,1.7,0,2.1,0.1c0.5,0.1,0.9,0.4,1.2,0.8s0.5,1,0.5,1.7c0,0.5-0.1,1-0.3,1.3
					s-0.4,0.6-0.7,0.8s-0.6,0.3-0.9,0.4c-0.4,0.1-1,0.1-1.8,0.1h-1.1V16H33.2z M34.9,8.9v2.4h0.9c0.7,0,1.1,0,1.4-0.1
					s0.4-0.2,0.5-0.4s0.2-0.4,0.2-0.7c0-0.3-0.1-0.6-0.3-0.8S37.3,9,37,8.9c-0.2,0-0.6-0.1-1.2-0.1H34.9z"/>
                <path class="st2" d="M41.2,16V7.4h1.7V16H41.2z"/>
                <path class="st2" d="M48.5,12.8v-1.4h3.7v3.4c-0.4,0.4-0.9,0.7-1.6,0.9s-1.4,0.4-2.1,0.4c-0.9,0-1.7-0.2-2.3-0.6
					s-1.2-0.9-1.5-1.6s-0.5-1.5-0.5-2.3c0-0.9,0.2-1.7,0.6-2.4s0.9-1.2,1.6-1.6c0.6-0.3,1.2-0.4,2.1-0.4c1.1,0,1.9,0.2,2.5,0.7
					s1,1.1,1.2,1.9l-1.7,0.3c-0.1-0.4-0.3-0.8-0.7-1S49,8.7,48.5,8.7c-0.8,0-1.4,0.2-1.8,0.7S46,10.7,46,11.6c0,1,0.2,1.8,0.7,2.3
					s1,0.8,1.8,0.8c0.4,0,0.7-0.1,1.1-0.2s0.7-0.3,0.9-0.5v-1.1H48.5z"/>
                <path class="st2"
                        d="M55.1,16L53,7.4h1.8l1.3,5.9l1.6-5.9h2.1l1.5,6l1.3-6h1.7L62.2,16h-1.8l-1.7-6.4L57,16H55.1z"/>
			</g>
            <g id="Path" transform="translate(1.000000, 21.125000)">
				<path class="st3" d="M43,60.5c-14.7,0.1-26.9-11.4-27.7-26.1S25.4,6.9,40,5.4s27.9,8.7,30.2,23.2h4.2C72.2,12,57.5,0,40.7,1.1
					S11,16.1,11,32.9s13,30.7,29.7,31.8c16.7,1.1,31.5-10.9,33.7-27.6h-4.2C68.2,50.6,56.6,60.5,43,60.5z"/>
                <polygon class="st3" points="26,22.2 60,22.2 60,26.5 26,26.5 				"/>
                <polygon class="st3" points="26,45.6 60,45.6 60,49.9 26,49.9 				"/>
                <polygon class="st3" points="26,22.2 30.2,22.2 30.2,28.6 26,28.6 				"/>
                <polygon class="st3" points="26,43.5 30.2,43.5 30.2,49.9 26,49.9 				"/>
                <polygon class="st3" points="55.8,43.5 60,43.5 60,49.9 55.8,49.9 				"/>
                <polygon class="st3" points="55.8,22.2 60,22.2 60,28.6 55.8,28.6 				"/>
                <polygon class="st3"
                        points="32.4,13.8 36.6,13.8 36.6,22.2 32.4,22.2 				"/>
                <polygon class="st3"
                        points="49.4,13.8 53.6,13.8 53.6,22.2 49.4,22.2 				"/>
                <polygon class="st3"
                        points="28.1,30.8 32.4,30.8 32.4,41.4 28.1,41.4 				"/>
                <polygon class="st3"
                        points="34.5,30.8 38.8,30.8 38.8,41.4 34.5,41.4 				"/>
                <polygon class="st3"
                        points="30.2,30.8 36.6,30.8 36.6,32.9 30.2,32.9 				"/>
                <polygon class="st3" points="30.2,35 36.6,35 36.6,37.1 30.2,37.1 				"/>
                <polygon class="st3" points="43,30.8 51.5,30.8 51.5,32.9 43,32.9 				"/>
                <polygon class="st3" points="40.9,35 49.4,35 49.4,37.1 40.9,37.1 				"/>
                <polygon class="st3"
                        points="40.9,30.8 45.1,30.8 45.1,41.4 40.9,41.4 				"/>
                <polygon class="st3"
                        points="47.2,30.8 51.5,30.8 51.5,37.1 47.2,37.1 				"/>
                <polygon class="st3"
                        points="53.6,30.8 57.9,30.8 57.9,41.4 53.6,41.4 				"/>
			</g>
		</g>
	</g>
</g>
</svg>
