<?xml version="1.0" encoding="utf-8"?>
<!-- Generator: Adobe Illustrator 23.0.3, SVG Export Plug-In . SVG Version: 6.00 Build 0)  -->
<svg version="1.1" id="图层_1" xmlns="http://www.w3.org/2000/svg" x="0px" y="0px"
        width="88px" height="88px" viewBox="0 0 88 88" style="enable-background:new 0 0 88 88;"
        xml:space="preserve">
<style type="text/css">
	.st0{fill:none;}
	.st1{enable-background:new    ;}
	.st2{fill:#00A4FF;}
</style>
    <title>CMQ</title>
    <desc>Created with Sketch.</desc>
    <g id="Page-1">
	<g transform="translate(-968.000000, -618.000000)">
		<g id="CMQ" transform="translate(968.000000, 618.000000)">
			<polygon id="Rectangle" class="st0" points="10,0 78,0 78,88 10,88 			"/>
            <g class="st1">
				<path class="st2" d="M36.4,12.8l1.7,0.5c-0.3,0.9-0.7,1.6-1.3,2.1s-1.4,0.7-2.3,0.7c-1.1,0-2.1-0.4-2.8-1.2s-1.1-1.8-1.1-3.2
					c0-1.4,0.4-2.5,1.1-3.3s1.7-1.2,2.9-1.2c1.1,0,1.9,0.3,2.6,0.9c0.4,0.4,0.7,0.9,0.9,1.6l-1.7,0.4c-0.1-0.4-0.3-0.8-0.6-1.1
					S35,8.7,34.5,8.7c-0.6,0-1.2,0.2-1.5,0.7s-0.6,1.2-0.6,2.2c0,1.1,0.2,1.9,0.6,2.3s0.9,0.7,1.5,0.7c0.5,0,0.9-0.1,1.2-0.4
					S36.2,13.5,36.4,12.8z"/>
                <path class="st2"
                        d="M39.5,16V7.4h2.6l1.6,5.9l1.5-5.9h2.6V16h-1.6V9.2L44.5,16h-1.7l-1.7-6.8V16H39.5z"/>
                <path class="st2" d="M56.5,14.9c0.4,0.3,0.9,0.5,1.4,0.7l-0.6,1.2c-0.3-0.1-0.5-0.2-0.8-0.3c-0.1,0-0.4-0.3-1.2-0.8
					c-0.6,0.2-1.2,0.4-1.9,0.4c-1.3,0-2.4-0.4-3.1-1.2s-1.1-1.9-1.1-3.3c0-1.4,0.4-2.5,1.1-3.3s1.8-1.2,3.1-1.2c1.3,0,2.3,0.4,3,1.2
					s1.1,1.9,1.1,3.3c0,0.7-0.1,1.4-0.3,2C57,14.1,56.8,14.5,56.5,14.9z M55.1,13.9c0.2-0.3,0.4-0.6,0.5-0.9s0.2-0.8,0.2-1.3
					c0-1-0.2-1.7-0.7-2.2s-1-0.7-1.7-0.7S52.1,9,51.6,9.5S51,10.7,51,11.7c0,1,0.2,1.8,0.7,2.3s1,0.7,1.7,0.7c0.2,0,0.5,0,0.7-0.1
					c-0.4-0.2-0.7-0.4-1.1-0.5l0.5-1C54,13.2,54.5,13.5,55.1,13.9z"/>
			</g>
            <path id="Shape" class="st2" d="M44.2,81.6c-15.3,0-27.8-12.3-27.8-27.6s12.5-27.6,27.8-27.6c13.8,0,25.3,10.2,27.4,23.4h4.2
				c-2.1-15.5-15.5-27.6-31.7-27.6C26.5,22.2,12,36.4,12,54.1S26.2,86,44.1,86c16.1,0,29.5-12.1,31.7-27.6h-4.2
				C69.5,71.4,58,81.6,44.2,81.6z M58.9,51.9V39.1H29.1v12.8h2.1h2.1h4.2l-2,2.1v4.2h19.1v4.2v4.2h4.2v-8.5V54h-4.2h-4.2l2.1-2.1
				v-4.2H33.4v-4.2h21.2V52L58.9,51.9L58.9,51.9z M41.9,51.9h6.4L46.1,54h-6.4L41.9,51.9z M29.1,54v12.8h18.1l3.2,4.2h4.2l-6.4-8.5
				H44H33.4V54H29.1z"/>
		</g>
	</g>
</g>
</svg>
