<?xml version="1.0" encoding="UTF-8"?>
<svg xmlns:xlink="http://www.w3.org/1999/xlink" width="32px" height="32px" viewBox="0 0 32 32"
        version="1.1"
        xmlns="http://www.w3.org/2000/svg">
    <title>腾讯云logo</title>
    <defs>
        <polygon id="path-1"
                points="0.00801066667 0.102218667 24.4957867 0.102218667 24.4957867 14.2933098 0.00801066667 14.2933098"></polygon>
        <polygon id="path-3"
                points="0.033888 0.0612266667 18.3889681 0.0612266667 18.3889681 8.188768 0.033888 8.188768"></polygon>
    </defs>
    <g id="腾讯云logo" stroke="none" stroke-width="1" fill="none" fill-rule="evenodd">
        <g transform="translate(0.746667, 4.800000)">
            <g id="Fill-1-Clipped" transform="translate(6.080000, 7.938773)">
                <mask id="mask-2" fill="white">
                    <use xlink:href="#path-1"></use>
                </mask>
                <g id="path-1"></g>
                <path d="M22.4684907,2.229792 C21.1885973,0.924725333 19.404704,0.102218667 17.4215573,0.102218667 C15.7072107,0.102218667 14.2313707,0.693152 12.9428373,1.742432 C12.381024,2.19981867 11.7917973,2.74744533 11.0505707,3.46744533 C10.6823573,3.824992 0.00801066667,14.1826453 0.00801066667,14.1826453 C0.567584,14.2622187 1.337184,14.2860053 2.02337067,14.290272 C2.66625067,14.2943253 14.9306773,14.293152 15.444064,14.293152 C16.4774507,14.293152 17.1498773,14.2920853 17.872224,14.2392853 C19.528864,14.1182187 21.0938773,13.510752 22.358944,12.2684053 C25.168224,9.50968533 25.210464,5.03213867 22.4684907,2.229792 M20.4167573,10.2834453 C19.8723307,10.8222187 18.9012373,11.433952 17.307104,11.4881387 C16.5699307,11.5132053 15.7091307,11.5160853 15.3152107,11.5160853 C14.8854507,11.5160853 11.0948373,11.5160853 6.749664,11.5159787 C9.866144,8.48920533 12.5846507,5.84877867 12.893024,5.54936533 C13.175584,5.274912 13.8109973,4.66701867 14.3590507,4.173472 C15.562144,3.09005867 16.6454507,2.872032 17.4113173,2.87928533 C18.6116373,2.89048533 19.703264,3.38061867 20.4835307,4.171872 C22.1526507,5.87800533 22.113184,8.604512 20.4167573,10.2834453"
                        id="Fill-1" fill="#00A3FF" fill-rule="nonzero" mask="url(#mask-2)"></path>
            </g>
            <path d="M11.3263573,9.502528 C10.0716373,8.56354133 8.66683733,8.03863467 7.074304,8.04096572 C5.09115733,8.04096572 3.30715733,8.863488 2.027264,10.1685547 C-0.714602667,12.9709013 -0.672362667,17.448448 2.13691733,20.207168 C3.26481067,21.3147947 4.63121067,21.917568 6.088384,22.1209813 L8.83675733,19.4541013 C8.392384,19.4521813 7.754624,19.446208 7.18865067,19.4269013 C5.594624,19.3727147 4.62353067,18.7609813 4.07899733,18.2221013 C2.38257067,16.5433813 2.343104,13.816768 4.01233067,12.1106347 C4.79259733,11.3193813 5.884224,10.829248 7.08443733,10.818048 C7.836544,10.8150613 8.857344,11.033408 10.0107307,11.9894613 C10.561344,12.4459947 11.7838507,13.5205547 12.3201707,14.0041813 C12.3474773,14.028928 12.3803307,14.0310613 12.4123307,14.0048213 L14.304704,12.1584213 C14.3374507,12.1266347 14.335424,12.0837547 14.3032107,12.0546347 C13.3931307,11.2319147 12.1028907,10.0808747 11.3263573,9.502528"
                    id="Fill-3" fill="#00C8DC" fill-rule="nonzero"></path>
            <g id="Fill-5-Clipped" transform="translate(5.866667, 0.045440)">
                <mask id="mask-4" fill="white">
                    <use xlink:href="#path-3"></use>
                </mask>
                <g id="path-3"></g>
                <path d="M18.3789547,6.39271467 C17.0731413,2.70439467 13.5568747,0.0611946667 9.42119467,0.0611946667 C4.67719467,0.0611946667 0.745888,3.549728 0.033888,8.09383467 C0.415434667,8.02962133 0.807328,7.995488 1.207648,7.995488 C1.76455467,7.99474133 2.29799467,8.059808 2.81063467,8.18311467 C2.82066133,8.185248 2.830688,8.18631467 2.840608,8.188768 C3.48338133,5.12071467 6.19570133,2.84178133 9.42119467,2.84178133 C12.107488,2.84178133 14.4641813,4.462048 15.526688,6.758048 C15.5434347,6.794208 15.5717013,6.80615467 15.6007147,6.79815467 C16.3997547,6.57863467 17.3578347,6.45095467 18.283168,6.51911467 C18.3733013,6.52583467 18.407968,6.47506133 18.3789547,6.39271467"
                        id="Fill-5" fill="#006EFF" fill-rule="nonzero" mask="url(#mask-4)"></path>
            </g>
        </g>
    </g>
</svg>