<?xml version="1.0" encoding="utf-8"?>
<!-- Generator: Adobe Illustrator 23.0.3, SVG Export Plug-In . SVG Version: 6.00 Build 0)  -->
<svg version="1.1" id="图层_1" xmlns="http://www.w3.org/2000/svg" x="0px" y="0px"
        width="88px" height="88px" viewBox="0 0 88 88" style="enable-background:new 0 0 88 88;"
        xml:space="preserve">
<style type="text/css">
	.st0{fill-rule:evenodd;clip-rule:evenodd;fill:#00A4FF;}
	.st1{fill:none;}
	.st2{enable-background:new    ;}
	.st3{fill:#00A4FF;}
</style>
    <title>ES</title>
    <desc>Created with Sketch.</desc>
    <g id="Page-1">
	<g transform="translate(-881.000000, -618.000000)">
		<g id="ES" transform="translate(881.000000, 618.000000)">
			<path id="Fill-1" class="st0" d="M56.8,53.3h-4.3v4.3c2.2,0.1,4.1-1.6,4.3-3.8C56.8,53.6,56.8,53.5,56.8,53.3z M41.9,44.7v-4.3
				H31.2v17.2h10.7v-4.3h-6.4v-2.1h6.4v-4.3h-6.4v-2.1h6.4V44.7z M71.7,68.3c-1.5,0-2.9,0.8-3.7,2.1H18.4V38.3h-4.3v36.5H68
				c1.2,2.1,3.8,2.8,5.8,1.6c2-1.2,2.7-3.8,1.6-5.9C74.6,69.1,73.2,68.3,71.7,68.3z M20,27.5h49.6v32.2h4.3V23.2H20
				c-1.2-2.1-3.8-2.8-5.8-1.6s-2.7,3.8-1.6,5.9s3.8,2.8,5.8,1.6C19.1,28.7,19.6,28.2,20,27.5z M50.4,46.9v-2.1h6.4v-4.3h-6.4
				c-2.3-0.1-4.2,1.7-4.3,4v0.3v2.1c-0.1,2.2,1.6,4.2,3.8,4.3c0.2,0,0.3,0,0.5,0h2.1v-4.3H50.4z M56.8,53.3v-2.1
				c0.1-2.2-1.6-4.2-3.8-4.3c-0.2,0-0.3,0-0.5,0v4.3v2.1H56.8z M46.1,57.6h6.4v-4.3h-6.4V57.6z"/>
            <polygon id="Rectangle" class="st1" points="10,0 78,0 78,88 10,88 			"/>
            <g class="st2">
				<path class="st3" d="M36.9,16V7.4h6.4v1.5h-4.6v1.9h4.3v1.4h-4.3v2.3h4.8V16H36.9z"/>
                <path class="st3" d="M44.4,13.2l1.7-0.2c0.1,0.6,0.3,1,0.6,1.2s0.7,0.4,1.3,0.4c0.6,0,1-0.1,1.3-0.4s0.4-0.5,0.4-0.8
					c0-0.2-0.1-0.4-0.2-0.5s-0.3-0.3-0.6-0.4c-0.2-0.1-0.7-0.2-1.4-0.4c-0.9-0.2-1.6-0.5-2-0.8c-0.5-0.5-0.8-1-0.8-1.7
					c0-0.4,0.1-0.8,0.4-1.2s0.6-0.7,1.1-0.9s1-0.3,1.7-0.3c1.1,0,1.9,0.2,2.4,0.7s0.8,1.1,0.9,1.9l-1.7,0.1c-0.1-0.4-0.2-0.8-0.5-1
					s-0.6-0.3-1.1-0.3c-0.5,0-0.9,0.1-1.2,0.3c-0.2,0.1-0.3,0.3-0.3,0.5c0,0.2,0.1,0.4,0.3,0.5c0.2,0.2,0.8,0.4,1.6,0.6
					s1.5,0.4,1.9,0.6s0.7,0.5,0.9,0.9s0.3,0.8,0.3,1.4c0,0.5-0.1,1-0.4,1.4s-0.7,0.7-1.2,1s-1.1,0.3-1.9,0.3c-1.1,0-1.9-0.3-2.5-0.8
					S44.5,14.2,44.4,13.2z"/>
			</g>
		</g>
	</g>
</g>
</svg>
