<svg width="32px" height="32px" xmlns="http://www.w3.org/2000/svg">
    <path d="M30,2 L30,4 L7,4 L4,7 L4,25 L7,28 L25,28 L28,25 L28,7 L30,7 L30,26 L26,30 L6,30 L2,26 L2,6 L6,2 L30,2 Z M16,21 C17.1045695,21 18,21.8954305 18,23 C18,24.1045695 17.1045695,25 16,25 C14.8954305,25 14,24.1045695 14,23 C14,21.8954305 14.8954305,21 16,21 Z M19,9.5 L24,12 L24,14 L20,16 L24,18 L24,20 L19,22.5 C18.899,21.899 18.621,21.341 18.2,20.9 L18.2,20.9 L22,19 L18,17 L16,18 L14,17 L10,19 L13.8,20.9 C13.44825,21.29725 13.1929687,21.7695312 13.0529141,22.2793281 L13,22.5 L8,20 L8,18 L8,18.001 L8,18 L12,16 L8,14 L8,14 L8,12 L13,9.5 C13.122,10.094 13.398,10.646 13.8,11.1 L13.8,11.1 L10,13 L14,15 L16,14 L18,15 L22,13 L18.2,11.1 C18.568375,10.714125 18.8272656,10.2386719 18.9538945,9.72321484 L19,9.5 Z M16,7 C17.1045695,7 18,7.8954305 18,9 C18,10.1045695 17.1045695,11 16,11 C14.8954305,11 14,10.1045695 14,9 C14,7.8954305 14.8954305,7 16,7 Z"
            fill="#7C878E" fill-rule="nonzero"/>
</svg>