<?xml version="1.0" encoding="UTF-8"?>
<svg width="16px" height="16px" viewBox="0 0 16 16" version="1.1"
        xmlns="http://www.w3.org/2000/svg">
    <title>远程调试</title>
    <g id="远程调试" stroke="none" stroke-width="1" fill="none" fill-rule="evenodd">
        <g id="远程调试-RD-16px" fill-rule="nonzero">
            <rect id="Rectangle-Copy" fill="#444444" opacity="0" x="0" y="0" width="16"
                    height="16"></rect>
            <path d="M15,9 L15,15 L9,15 L9,9 L15,9 Z M13,11 L11,11 L11,13 L13,13 L13,11 Z M3,8 L3,11 L6,11 L6,10 L6.98254529,11 L7,11 L7,11.0177648 L8.94763588,13 L1,13 L1,8 L3,8 Z M14.947636,3 L14.947636,8 L12.947636,8 L12.947636,5 L9.947636,5 L9.947636,6 L8.9650907,5 L8.947636,5 L8.947636,4.98223521 L7.0000001,3 L8.947636,3 L12.947636,3 L14.947636,3 Z M7,1 L7,7 L1,7 L1,1 L7,1 Z M5,3 L3,3 L3,5 L5,5 L5,3 Z"
                    id="形状结合" fill="#888888"></path>
        </g>
    </g>
</svg>