<?xml version="1.0" encoding="utf-8"?>
<!-- Generator: Adobe Illustrator 22.1.0, SVG Export Plug-In . SVG Version: 6.00 Build 0)  -->
<svg version="1.1" id="图层_1" xmlns="http://www.w3.org/2000/svg" x="0px" y="0px"
        width="88px" height="88px" viewBox="0 0 88 88" style="enable-background:new 0 0 88 88;"
        xml:space="preserve">
<style type="text/css">
	.st0{fill:#00A4FF;}
</style>
    <title>画板</title>
    <g id="画板">
	<g id="db71a1a4c8af48be72f6bb08b7a9b0fc" transform="translate(11.000000, 24.000000)">
		<path id="Path" class="st0" d="M51.8,41.4l-6,10.3H19L5.8,28.2L19,5h26.8l6.5,11.3c1.5-0.9,3.1-1.6,4.8-2L48.8,0H16.2L0,28.5
			L16.2,57h32.5l7.5-13.1C54.6,43.3,53.1,42.4,51.8,41.4z"/>
        <g id="Group" transform="translate(23.000000, 21.000000)">
			<polygon id="Path_1_" class="st0"
                    points="0.2,10.2 0.2,5.4 36.9,5.4 36.9,10.2 			"/>
            <ellipse id="Oval" class="st0" cx="36.9" cy="7.8" rx="7.6" ry="7.2"/>
		</g>
        <polygon id="Path_2_" class="st0"
                points="33.8,56 36.8,51 23.9,28.5 37,5 33.8,1 18,28.5 		"/>
	</g>
        <path id="CKAFKA" class="st0" d="M24.2,16v-2.6l1.4-1.4l2.4,4h2.2l-3.4-5.2L30,7.4h-2.3l-3.5,3.8V7.4h-1.7V16H24.2z M32.1,16l0.7-2
		h3.4l0.8,2h1.9l-3.4-8.6h-1.8L30.2,16H32.1z M35.7,12.6h-2.3l1.2-3.2L35.7,12.6z M41.5,16v-3.7h3.6v-1.5h-3.6v-2h4.2V7.4h-5.9V16
		H41.5z M48.9,16v-2.6l1.4-1.4l2.4,4h2.2l-3.4-5.2l3.2-3.3h-2.3l-3.5,3.8V7.4h-1.7V16H48.9z M56.7,16l0.7-2h3.4l0.8,2h1.9l-3.4-8.6
		h-1.8L54.9,16H56.7z M60.3,12.6H58l1.2-3.2L60.3,12.6z"/>
</g>
</svg>
