<?xml version="1.0" encoding="utf-8"?>
<!-- Generator: Adobe Illustrator 23.0.3, SVG Export Plug-In . SVG Version: 6.00 Build 0)  -->
<svg version="1.1" id="图层_1" xmlns="http://www.w3.org/2000/svg" x="0px" y="0px"
        width="88px" height="88px" viewBox="0 0 88 88" style="enable-background:new 0 0 88 88;"
        xml:space="preserve">
<style type="text/css">
	.st0{fill:#00A4FF;}
	.st1{fill-rule:evenodd;clip-rule:evenodd;fill:#00A4FF;}
	.st2{fill:none;}
	.st3{enable-background:new    ;}
</style>
    <title>MongoDB</title>
    <desc>Created with Sketch.</desc>
    <g id="Page-1">
	<g transform="translate(-804.000000, -525.000000)">
		<g id="MongoDB" transform="translate(804.000000, 525.000000)">
			<g id="_编组_" transform="translate(39.122069, 48.497931)">
				<path id="Shape" class="st0" d="M35.3,19.3c-0.7-5.8-4-10.6-10.2-17L22.7,0c0,0-3.8,3.8-4,4c-2.4,2.6-4.6,5.5-6.5,8.5
					c-1.1,2.1-1.8,4.5-2.1,6.8c-0.7,6.4,2.3,10.2,10.5,12.5V36h4.2v-4.1C32.8,29.5,36,25.7,35.3,19.3z M20.6,27.6
					c-3-0.9-7-1-6.4-8.5c0.7-4.6,2.9-8.8,6.4-11.9V27.6z M24.9,27.8V7c4.9,5.2,6,8.3,6.4,12.4C31.9,24.1,30.5,26,24.9,27.8
					L24.9,27.8z"/>
			</g>
            <g id="Group" transform="translate(3.000000, 23.000000)">
				<path class="st0" d="M14.2,35.6c4.6,2.9,12.4,4.8,21.2,4.8c1.8,0,3.5,0,5.1-0.2c0.4-1.5,0.9-2.9,1.5-4.2
					c-2.1,0.2-4.2,0.3-6.7,0.3c-11.7-0.1-21.2-2.9-21.2-6.5V16.5c4.6,2.9,12.4,4.8,21.2,4.8s16.7-1.9,21.2-4.8v2.6H61v-8.5
					C61,4.8,49.6,0,35.5,0S10,4.8,10,10.6v38.2h4.2V35.6z M35.5,4.2c11.7,0,21.2,2.8,21.2,6.4S47.2,17,35.5,17s-21.2-2.8-21.2-6.4
					S23.8,4.2,35.5,4.2z"/>
                <path id="Path" class="st1" d="M41.7,55c-1.9,0.3-4.1,0.3-6.2,0.3c-11.7,0-21.2-2.8-21.2-6.4H10c0,5.9,11.4,10.6,25.5,10.6
					c3.1,0,6.2-0.2,9.3-0.7C43.5,57.7,42.5,56.4,41.7,55z"/>
			</g>
            <polygon id="Rectangle" class="st2" points="10,0 78,0 78,88 10,88 			"/>
            <g class="st3">
				<path class="st0"
                        d="M16.5,16V7.4h2.6l1.6,5.9l1.5-5.9h2.6V16h-1.6V9.2L21.5,16h-1.7l-1.7-6.8V16H16.5z"/>
                <path class="st0" d="M26.2,12.8c0-0.5,0.1-1.1,0.4-1.6s0.7-0.9,1.1-1.2s1-0.4,1.7-0.4c0.9,0,1.7,0.3,2.3,0.9s0.9,1.4,0.9,2.3
					c0,0.9-0.3,1.7-0.9,2.3s-1.4,0.9-2.3,0.9c-0.6,0-1.1-0.1-1.6-0.4s-0.9-0.6-1.2-1.1S26.2,13.5,26.2,12.8z M27.8,12.9
					c0,0.6,0.1,1.1,0.4,1.4s0.7,0.5,1.1,0.5s0.8-0.2,1.1-0.5s0.4-0.8,0.4-1.4c0-0.6-0.1-1.1-0.4-1.4S29.8,11,29.4,11
					s-0.8,0.2-1.1,0.5S27.8,12.3,27.8,12.9z"/>
                <path class="st0" d="M39.5,16h-1.6v-3.2c0-0.7,0-1.1-0.1-1.3s-0.2-0.4-0.3-0.5s-0.3-0.2-0.6-0.2c-0.3,0-0.5,0.1-0.8,0.2
					s-0.4,0.4-0.5,0.6s-0.1,0.7-0.1,1.4V16h-1.6V9.8h1.5v0.9c0.5-0.7,1.2-1.1,2.1-1.1c0.4,0,0.7,0.1,1,0.2s0.5,0.3,0.7,0.5
					s0.3,0.4,0.3,0.7s0.1,0.6,0.1,1.1V16z"/>
                <path class="st0" d="M41,16.4l1.9,0.2c0,0.2,0.1,0.4,0.2,0.5c0.2,0.1,0.4,0.2,0.7,0.2c0.4,0,0.8-0.1,1-0.2
					c0.1-0.1,0.3-0.2,0.3-0.4c0.1-0.1,0.1-0.4,0.1-0.8V15c-0.5,0.7-1.1,1-1.9,1c-0.8,0-1.5-0.4-2-1.1c-0.4-0.6-0.6-1.3-0.6-2.1
					c0-1,0.3-1.8,0.8-2.4s1.1-0.8,1.9-0.8c0.8,0,1.4,0.3,1.9,1V9.8h1.5v5.6c0,0.7-0.1,1.3-0.2,1.6s-0.3,0.6-0.5,0.9
					s-0.5,0.4-0.9,0.5s-0.8,0.2-1.4,0.2c-1.1,0-1.8-0.2-2.2-0.5S41,17.2,41,16.6C41,16.6,41,16.5,41,16.4z M42.5,12.8
					c0,0.7,0.1,1.1,0.4,1.5s0.6,0.5,0.9,0.5c0.4,0,0.7-0.2,1-0.5s0.4-0.8,0.4-1.4c0-0.6-0.1-1.1-0.4-1.4s-0.6-0.5-1-0.5
					c-0.4,0-0.7,0.2-1,0.5S42.5,12.1,42.5,12.8z"/>
                <path class="st0" d="M48.1,12.8c0-0.5,0.1-1.1,0.4-1.6s0.7-0.9,1.1-1.2s1-0.4,1.7-0.4c0.9,0,1.7,0.3,2.3,0.9s0.9,1.4,0.9,2.3
					c0,0.9-0.3,1.7-0.9,2.3s-1.4,0.9-2.3,0.9c-0.6,0-1.1-0.1-1.6-0.4s-0.9-0.6-1.2-1.1S48.1,13.5,48.1,12.8z M49.8,12.9
					c0,0.6,0.1,1.1,0.4,1.4s0.7,0.5,1.1,0.5s0.8-0.2,1.1-0.5s0.4-0.8,0.4-1.4c0-0.6-0.1-1.1-0.4-1.4S51.8,11,51.4,11
					s-0.8,0.2-1.1,0.5S49.8,12.3,49.8,12.9z"/>
                <path class="st0" d="M55.9,7.4H59c0.7,0,1.3,0.1,1.6,0.2C61.2,7.7,61.6,8,62,8.4s0.6,0.8,0.8,1.4s0.3,1.2,0.3,2
					c0,0.7-0.1,1.3-0.3,1.8c-0.2,0.6-0.5,1.1-0.9,1.5c-0.3,0.3-0.7,0.5-1.2,0.7c-0.4,0.1-0.9,0.2-1.5,0.2h-3.3V7.4z M57.6,8.9v5.7
					h1.3c0.5,0,0.8,0,1-0.1c0.3-0.1,0.5-0.2,0.7-0.4s0.3-0.4,0.5-0.8s0.2-0.9,0.2-1.6s-0.1-1.2-0.2-1.5s-0.3-0.6-0.5-0.8
					S60.1,9,59.8,8.9c-0.2-0.1-0.7-0.1-1.4-0.1H57.6z"/>
                <path class="st0" d="M64.5,7.4H68c0.7,0,1.2,0,1.5,0.1s0.6,0.2,0.9,0.4s0.5,0.4,0.7,0.7s0.3,0.6,0.3,1c0,0.4-0.1,0.8-0.3,1.1
					s-0.5,0.6-0.9,0.8c0.5,0.2,0.9,0.4,1.2,0.8s0.4,0.8,0.4,1.3c0,0.4-0.1,0.8-0.3,1.1s-0.4,0.7-0.7,0.9s-0.7,0.4-1.2,0.4
					c-0.3,0-1,0.1-2.1,0.1h-2.9V7.4z M66.3,8.8v2h1.1c0.7,0,1.1,0,1.3,0c0.3,0,0.5-0.1,0.7-0.3s0.3-0.4,0.3-0.7
					c0-0.3-0.1-0.5-0.2-0.6S69,8.9,68.8,8.9c-0.2,0-0.7,0-1.5,0H66.3z M66.3,12.3v2.3h1.6c0.6,0,1,0,1.2-0.1c0.3,0,0.5-0.2,0.6-0.3
					s0.2-0.4,0.2-0.7c0-0.3-0.1-0.5-0.2-0.7s-0.3-0.3-0.5-0.4s-0.7-0.1-1.5-0.1H66.3z"/>
			</g>
		</g>
	</g>
</g>
</svg>
