<svg width="16px" height="16px" xmlns="http://www.w3.org/2000/svg">
    <path d="M11,8.908 C11.581,8.701 12,8.152 12,7.5 C12,6.671 11.329,6 10.5,6 C9.671,6 9,6.671 9,7.5 L9,9.562 L4.883,11.915 L3,10.839 L3,5.16 L10.016,1.152 L8,0 L1,4 L1,12 L4.883,14.219 L11,10.723 L11,8.908 Z M15,4 L15,12 L8,16 L5.984,14.848 L13,10.839 L13,5.16 L11.117,4.085 L7,6.437 L7,8.5 C7,9.328 6.329,10 5.5,10 C4.671,10 4,9.328 4,8.5 C4,7.847 4.419,7.298 5,7.092 L5,5.277 L11.117,1.781 L15,4 Z"
            fill="#7C878E" fill-rule="evenodd"/>
</svg>