<?xml version="1.0" encoding="utf-8"?>
<!-- Generator: Adobe Illustrator 23.0.3, SVG Export Plug-In . SVG Version: 6.00 Build 0)  -->
<svg xmlns:xlink="http://www.w3.org/1999/xlink" version="1.1" id="图层_1"
        xmlns="http://www.w3.org/2000/svg" x="0px" y="0px"
        width="68px" height="88px" viewBox="0 0 68 88" style="enable-background:new 0 0 68 88;"
        xml:space="preserve">
<style type="text/css">
	.st0{fill:#FFFFFF;}
	.st1{fill:#00A4FF;}
	.st2{font-family:'Roboto-BoldCondensed';}
	.st3{font-size:12px;}
	.st4{fill-rule:evenodd;clip-rule:evenodd;fill:#00A4FF;}
	.st5{clip-path:url(#SVGID_2_);}
	.st6{clip-path:url(#SVGID_4_);fill:#00A4FF;}
	.st7{clip-path:url(#SVGID_6_);}
	.st8{clip-path:url(#SVGID_8_);fill:#00A4FF;}
</style>
    <title>API网关</title>
    <desc>Created with Sketch.</desc>
    <polygon id="Rectangle_2_" class="st0" points="0,0 68,0 68,88 0,88 "/>
    <text transform="matrix(1 0 0 1 14.3711 16)" class="st1 st2 st3">Gateway</text>
    <path class="st4" d="M34,81.6C19.3,81.7,7.1,70.2,6.3,55.5C5.5,40.8,16.4,28.1,31,26.5c14.6-1.5,27.9,8.7,30.2,23.2h4.2
	c-2.2-16.6-17-28.7-33.7-27.6C15,23.3,2,37.2,2,54s13,30.7,29.7,31.8c16.7,1.1,31.5-10.9,33.7-27.6h-4.2
	C59.2,71.7,47.6,81.6,34,81.6z"/>
    <rect x="19" y="68" class="st1" width="30" height="4"/>
    <rect x="19" y="41.6" class="st1" width="30" height="4"/>
    <rect x="15" y="65" class="st1" width="4" height="7"/>
    <rect x="15" y="41.6" class="st1" width="4" height="7"/>
    <rect x="49" y="65" class="st1" width="4" height="7"/>
    <rect x="49" y="41.6" class="st1" width="4" height="7"/>
    <g>
	<g>
		<g>
			<defs>
				<rect id="SVGID_1_" x="24" y="33.6" width="4" height="8"/>
			</defs>
            <clipPath id="SVGID_2_">
				<use xlink:href="#SVGID_1_" style="overflow:visible;"/>
			</clipPath>
            <g class="st5">
				<g>
					<g>
						<defs>
							<rect id="SVGID_3_" x="-14" y="21" width="96" height="54.9"/>
						</defs>
                        <clipPath id="SVGID_4_">
							<use xlink:href="#SVGID_3_" style="overflow:visible;"/>
						</clipPath>
                        <rect x="14" y="27.9" class="st6" width="24" height="19.4"/>
					</g>
				</g>
			</g>
		</g>
	</g>
</g>
    <g>
	<g>
		<g>
			<defs>
				<rect id="SVGID_5_" x="40" y="33.6" width="4" height="8"/>
			</defs>
            <clipPath id="SVGID_6_">
				<use xlink:href="#SVGID_5_" style="overflow:visible;"/>
			</clipPath>
            <g class="st7">
				<g>
					<g>
						<defs>
							<rect id="SVGID_7_" x="2" y="21" width="96" height="54.9"/>
						</defs>
                        <clipPath id="SVGID_8_">
							<use xlink:href="#SVGID_7_" style="overflow:visible;"/>
						</clipPath>
                        <rect x="30" y="27.9" class="st8" width="24" height="19.4"/>
					</g>
				</g>
			</g>
		</g>
	</g>
</g>
    <polygon class="st1" points="43,50.9 45,50.9 47,62.9 45,62.9 "/>
    <polygon class="st1" points="47,50.9 49,50.9 51,62.9 49,62.9 "/>
    <polygon class="st1" points="53,50.9 51,50.9 49,62.9 51,62.9 "/>
    <polygon class="st1" points="49,50.9 47,50.9 45,62.9 47,62.9 "/>
    <g>
	<rect x="15" y="50.9" class="st1" width="2" height="12"/>
        <polygon class="st1" points="19,62.9 21,62.9 24,50.9 22,50.9 	"/>
        <rect x="23" y="50.9" class="st1" width="2" height="12"/>
        <polygon class="st1" points="21,62.9 19,62.9 16,50.9 18,50.9 	"/>
</g>
    <path class="st1" d="M28,50.9h4c0.6,0,1,0.4,1,1v1h-6v-1C27,51.3,27.4,50.9,28,50.9z"/>
    <path class="st1" d="M27,55.9h5c0.6,0,1,0.4,1,1v1h-5c-0.6,0-1-0.4-1-1V55.9z"/>
    <path class="st1" d="M27,60.9h6v1c0,0.6-0.4,1-1,1h-4c-0.6,0-1-0.4-1-1V60.9z"/>
    <path class="st1" d="M28,50.9h1v7h-1c-0.6,0-1-0.4-1-1v-5C27,51.3,27.4,50.9,28,50.9z"/>
    <path class="st1" d="M31,50.9h1c0.6,0,1,0.4,1,1v2h-2V50.9z"/>
    <path class="st1" d="M39,50.9h1c0.6,0,1,0.4,1,1v2h-2V50.9z"/>
    <path class="st1" d="M27,59.9h2v3h-1c-0.6,0-1-0.4-1-1V59.9z"/>
    <path class="st1" d="M31,55.9h1c0.6,0,1,0.4,1,1v5c0,0.6-0.4,1-1,1h-1V55.9z"/>
    <path class="st1" d="M36,50.9h1v12h-1c-0.6,0-1-0.4-1-1v-10C35,51.3,35.4,50.9,36,50.9z"/>
    <path class="st1" d="M39,56.9h1c0.6,0,1,0.4,1,1v4c0,0.6-0.4,1-1,1h-1V56.9z"/>
    <rect x="37" y="60.9" class="st1" width="2" height="2"/>
    <path class="st1" d="M37,50.9h3c0.6,0,1,0.4,1,1v1h-4V50.9z"/>
    <rect x="38" y="56.9" class="st1" width="1" height="2"/>
</svg>
