<?xml version="1.0" encoding="utf-8"?>
<!-- Generator: Adobe Illustrator 23.0.3, SVG Export Plug-In . SVG Version: 6.00 Build 0)  -->
<svg version="1.1" id="图层_1" xmlns="http://www.w3.org/2000/svg" x="0px" y="0px"
        width="88px" height="88px" viewBox="0 0 88 88" style="enable-background:new 0 0 88 88;"
        xml:space="preserve">
<style type="text/css">
	.st0{fill:none;}
	.st1{enable-background:new    ;}
	.st2{fill:#00A4FF;}
	.st3{fill-rule:evenodd;clip-rule:evenodd;fill:#00A4FF;}
</style>
    <title>MySQL</title>
    <desc>Created with Sketch.</desc>
    <g id="Page-1">
	<g transform="translate(-1061.000000, -525.000000)">
		<g id="MySQL" transform="translate(1061.000000, 525.000000)">
			<polygon id="Rectangle" class="st0" points="10,0 78,0 78,88 10,88 			"/>
            <g class="st1">
				<path class="st2"
                        d="M24.3,16V7.4h2.6l1.6,5.9L30,7.4h2.6V16H31V9.2L29.3,16h-1.7l-1.7-6.8V16H24.3z"/>
                <path class="st2" d="M33.5,9.8h1.8l1.5,4.4l1.5-4.4h1.7l-2.2,6l-0.4,1.1c-0.1,0.4-0.3,0.6-0.4,0.8s-0.3,0.3-0.5,0.5
					s-0.4,0.2-0.6,0.3s-0.5,0.1-0.8,0.1c-0.3,0-0.6,0-0.9-0.1l-0.1-1.3c0.3,0.1,0.5,0.1,0.7,0.1c0.4,0,0.7-0.1,0.8-0.3
					s0.3-0.5,0.4-0.9L33.5,9.8z"/>
                <path class="st2" d="M40.5,13.2l1.7-0.2c0.1,0.6,0.3,1,0.6,1.2s0.7,0.4,1.3,0.4c0.6,0,1-0.1,1.3-0.4s0.4-0.5,0.4-0.8
					c0-0.2-0.1-0.4-0.2-0.5s-0.3-0.3-0.6-0.4c-0.2-0.1-0.7-0.2-1.4-0.4c-0.9-0.2-1.6-0.5-2-0.8c-0.5-0.5-0.8-1-0.8-1.7
					c0-0.4,0.1-0.8,0.4-1.2s0.6-0.7,1.1-0.9s1-0.3,1.7-0.3c1.1,0,1.9,0.2,2.4,0.7s0.8,1.1,0.9,1.9l-1.7,0.1c-0.1-0.4-0.2-0.8-0.5-1
					S44.5,8.7,44,8.7c-0.5,0-0.9,0.1-1.2,0.3c-0.2,0.1-0.3,0.3-0.3,0.5c0,0.2,0.1,0.4,0.3,0.5c0.2,0.2,0.8,0.4,1.6,0.6
					s1.5,0.4,1.9,0.6s0.7,0.5,0.9,0.9s0.3,0.8,0.3,1.4c0,0.5-0.1,1-0.4,1.4s-0.7,0.7-1.2,1s-1.1,0.3-1.9,0.3c-1.1,0-1.9-0.3-2.5-0.8
					S40.7,14.2,40.5,13.2z"/>
                <path class="st2" d="M55.9,14.9c0.4,0.3,0.9,0.5,1.4,0.7l-0.6,1.2c-0.3-0.1-0.5-0.2-0.8-0.3c-0.1,0-0.4-0.3-1.2-0.8
					c-0.6,0.2-1.2,0.4-1.9,0.4c-1.3,0-2.4-0.4-3.1-1.2s-1.1-1.9-1.1-3.3c0-1.4,0.4-2.5,1.1-3.3s1.8-1.2,3.1-1.2c1.3,0,2.3,0.4,3,1.2
					s1.1,1.9,1.1,3.3c0,0.7-0.1,1.4-0.3,2C56.5,14.1,56.2,14.5,55.9,14.9z M54.5,13.9c0.2-0.3,0.4-0.6,0.5-0.9s0.2-0.8,0.2-1.3
					c0-1-0.2-1.7-0.7-2.2s-1-0.7-1.7-0.7S51.5,9,51.1,9.5s-0.7,1.2-0.7,2.2c0,1,0.2,1.8,0.7,2.3s1,0.7,1.7,0.7c0.2,0,0.5,0,0.7-0.1
					c-0.4-0.2-0.7-0.4-1.1-0.5l0.5-1C53.4,13.2,54,13.5,54.5,13.9z"/>
                <path class="st2" d="M58.4,16V7.5h1.7v7.1h4.3V16H58.4z"/>
			</g>
            <path id="Path" class="st3" d="M44.5,61.2c2.5,1.1,2.5,1.5,2.3,2.3c-0.6,1.1-2.5,5.7,0.4,10.6c0.4,0.6,1.1,0.8,1.7,0.8
				s1.3-0.4,1.7-1.1s1.1-1.9,1.9-2.5c0.8,1.7,2.5,4.2,4.5,5.9c2.1,1.9,2.5,3.6,2.8,5.7h3.8c-0.2-3-0.8-5.7-4-8.7
				c-2.3-2.1-4.2-6.4-4.5-6.4c-0.4-0.8-1.3-1.3-1.9-1.1c-1.5,0.2-2.8,1.1-3.6,2.1c-0.2-2.1,0.6-3.6,0.8-3.6c0-0.2,0.2-0.2,0.2-0.4
				c1.7-4.7-3-6.6-4.5-7.2c-0.2,0-0.4-0.2-0.6-0.2L45,57.2l0,0c0.6-0.2,1.1-0.6,1.3-1.3c0,0,0.4-1.7,1.9-2.3
				c1.1-0.6,2.5-0.6,4.7-0.2c5.5,1.3,8.9,4.5,8.9,4.5c0.4,0.4,1.3,0.6,1.9,0.4c1.5-0.4,3-0.2,4.2,0.4c-0.2,0.2-0.6,0.6-0.8,1.1
				c-0.6,1.1-1.5,3.6,1.1,7c2.5,3.4,2.3,10.6,1.5,16.3h3.6c0.8-5.9,1.1-14-2.3-18.4c-0.8-1.3-1.3-2.3-0.8-3c0.2-0.4,0.8-0.8,1.7-0.6
				c0.8,0,1.7-0.4,1.9-1.3c0.2-0.8,0-1.7-0.4-2.1c-0.2-0.2-4.7-3.8-9.7-3.2c-1.5-1.3-4.9-3.8-10-4.9c-3-0.8-5.5-0.6-7.4,0.6
				c-1.5,0.8-2.5,2.1-3,3.2c-1.3,0-2.8,0.6-3.2,1.9c-1.3,3.2,2.1,4.9,3.4,5.5l0.6,0.2C43.9,61,44.1,61,44.5,61.2z"/>
            <g id="Group" transform="translate(3.796104, 23.445583)">
				<path class="st3" d="M39,55.1c-1.3,0-2.3,0-3.6,0c-11.7,0-21.2-2.8-21.2-6.4H10c0,5.9,11.4,10.6,25.4,10.6
					c2.5,0,5.1-0.2,7.4-0.4L39,55.1z"/>
                <path id="Shape" class="st2" d="M14.2,35.6c3.4,2.1,8.7,3.8,14.8,4.5v-4.2c-8.5-0.8-14.8-3.4-14.8-6.1V16.5
					c4.7,2.8,12.3,4.7,21.2,4.7s16.7-1.9,21.2-4.7v5.3l4.2,2.1V10.6C60.9,4.7,49.4,0,35.4,0S10,4.7,10,10.6v38.2h4.2V35.6z
					 M35.4,4.2c11.7,0,21.2,2.8,21.2,6.4S47.1,17,35.4,17s-21.2-2.8-21.2-6.4S23.8,4.2,35.4,4.2z"/>
			</g>
		</g>
	</g>
</g>
</svg>
