<?xml version="1.0" encoding="utf-8"?>
<!-- Generator: Adobe Illustrator 23.0.3, SVG Export Plug-In . SVG Version: 6.00 Build 0)  -->
<svg version="1.1" id="图层_1" xmlns="http://www.w3.org/2000/svg" x="0px" y="0px"
        width="88px" height="88px" viewBox="0 0 88 88" style="enable-background:new 0 0 88 88;"
        xml:space="preserve">
<style type="text/css">
	.st0{fill:none;}
	.st1{fill:#00A4FF;}
	.st2{enable-background:new    ;}
</style>
    <title>Redis</title>
    <desc>Created with Sketch.</desc>
    <g id="Page-1">
	<g transform="translate(-628.000000, -525.000000)">
		<g id="Redis" transform="translate(628.000000, 525.000000)">
			<polygon id="Rectangle" class="st0" points="10,0 78,0 78,88 10,88 			"/>
            <g id="Shape" transform="translate(3.125000, 23.125000)">
				<path class="st1" d="M14.2,48.9V35.7c5.3,2.8,11.2,4.4,17.2,4.7v-4.2C21.6,35.6,14.2,33,14.2,30V16.6c4.5,2.8,12.3,4.7,21.2,4.7
					s16.8-1.9,21.2-4.7v7.9l4.2,1.9V10.6C61,4.7,49.5,0,35.5,0S10,4.7,10,10.6v38.2c0,6,11.5,10.6,25.5,10.6c1.2,0,2.4,0,3.6-0.2
					L31.5,55C21.7,54.6,14.2,52.1,14.2,48.9z M35.7,4.2C47.4,4.2,57,7,57,10.6h-0.2v0.6c-1.1,3.2-10.2,5.7-21,5.7
					c-11.7,0-21.3-2.8-21.3-6.4S23.8,4.2,35.7,4.2z M71.6,39.3v-1.1l-17-8.5l-17,8.3v4.9l17,8.3l17-8.5V39.3z M54.6,46.5l-12.1-5.9
					l12.1-6l12.1,6L54.6,46.5z M54.6,56.7l-17-7.9v4.9l17,7.9l17-8.5v-4.9L54.6,56.7z"/>
			</g>
		</g>
	</g>
</g>
    <g>
	<g class="st2">
		<path class="st1" d="M28.5,16V7.4h3.7c0.9,0,1.6,0.1,2,0.2s0.7,0.4,1,0.8s0.4,0.8,0.4,1.4c0,0.6-0.2,1.2-0.6,1.6s-0.9,0.7-1.7,0.8
			c0.4,0.2,0.7,0.5,0.9,0.7s0.6,0.7,1,1.4l1,1.7h-2.1l-1.3-1.9c-0.4-0.7-0.8-1.1-0.9-1.3s-0.3-0.3-0.5-0.4s-0.5-0.1-0.9-0.1h-0.4V16
			H28.5z M30.3,11h1.3c0.8,0,1.4,0,1.6-0.1s0.4-0.2,0.5-0.4s0.2-0.4,0.2-0.6c0-0.3-0.1-0.5-0.2-0.7s-0.4-0.3-0.7-0.3
			c-0.1,0-0.6,0-1.3,0h-1.4V11z"/>
        <path class="st1" d="M40.8,14l1.6,0.3c-0.2,0.6-0.5,1.1-1,1.4s-1,0.5-1.7,0.5c-1.1,0-1.9-0.4-2.4-1.1c-0.4-0.6-0.6-1.3-0.6-2.1
			c0-1,0.3-1.8,0.8-2.4s1.2-0.9,2-0.9c0.9,0,1.7,0.3,2.2,0.9s0.8,1.5,0.8,2.8h-4.1c0,0.5,0.1,0.9,0.4,1.1s0.6,0.4,0.9,0.4
			c0.3,0,0.5-0.1,0.7-0.2S40.7,14.3,40.8,14z M40.9,12.4c0-0.5-0.1-0.8-0.4-1.1s-0.5-0.4-0.9-0.4c-0.4,0-0.7,0.1-0.9,0.4
			s-0.3,0.6-0.3,1.1H40.9z"/>
        <path class="st1" d="M49.6,16H48v-0.9c-0.3,0.4-0.6,0.6-0.9,0.8s-0.7,0.3-1,0.3c-0.7,0-1.3-0.3-1.8-0.9s-0.8-1.4-0.8-2.4
			c0-1.1,0.2-1.9,0.7-2.4s1.1-0.8,1.9-0.8c0.7,0,1.3,0.3,1.8,0.9V7.4h1.6V16z M45.2,12.8c0,0.7,0.1,1.1,0.3,1.4
			c0.3,0.4,0.6,0.6,1.1,0.6c0.4,0,0.7-0.2,1-0.5s0.4-0.8,0.4-1.4c0-0.7-0.1-1.2-0.4-1.5s-0.6-0.5-1-0.5c-0.4,0-0.7,0.2-1,0.5
			S45.2,12.1,45.2,12.8z"/>
        <path class="st1" d="M51.2,8.9V7.4h1.6v1.5H51.2z M51.2,16V9.8h1.6V16H51.2z"/>
        <path class="st1" d="M53.9,14.2l1.7-0.3c0.1,0.3,0.2,0.6,0.4,0.7s0.5,0.2,0.9,0.2c0.4,0,0.7-0.1,1-0.2c0.1-0.1,0.2-0.3,0.2-0.4
			c0-0.1,0-0.2-0.1-0.3c-0.1-0.1-0.3-0.2-0.6-0.2c-1.3-0.3-2.2-0.6-2.5-0.8c-0.5-0.3-0.7-0.8-0.7-1.4c0-0.5,0.2-1,0.6-1.4
			s1.1-0.6,2-0.6c0.9,0,1.5,0.1,1.9,0.4s0.7,0.7,0.9,1.2L58,11.6c-0.1-0.2-0.2-0.4-0.4-0.6s-0.5-0.2-0.8-0.2c-0.4,0-0.7,0.1-0.9,0.2
			c-0.1,0.1-0.2,0.2-0.2,0.3c0,0.1,0.1,0.2,0.2,0.3c0.1,0.1,0.7,0.3,1.5,0.5s1.5,0.4,1.8,0.7c0.3,0.3,0.5,0.7,0.5,1.2
			c0,0.6-0.2,1.1-0.7,1.5s-1.2,0.6-2.1,0.6c-0.8,0-1.5-0.2-2-0.5S54.1,14.8,53.9,14.2z"/>
	</g>
</g>
</svg>
