<?xml version="1.0" encoding="UTF-8"?>
<svg width="16px" height="16px" viewBox="0 0 16 16" version="1.1"
        xmlns="http://www.w3.org/2000/svg">
    <title>deploy</title>
    <g id="deploy" stroke="none" stroke-width="1" fill="none" fill-rule="evenodd">
        <g id="interface">
            <rect id="矩形" x="0" y="0" width="16" height="16"></rect>
            <path d="M11,1 L11,6 L9,6 L9,7 L13,7 L13,10 L15,10 L15,15 L9,15 L9,10 L11,10 L11,9 L5,9 L5,10 L7,10 L7,15 L1,15 L1,10 L3,10 L3,7 L7,7 L7,6 L5,6 L5,1 L11,1 Z M5,12 L3,12 L3,13 L5,13 L5,12 Z M13,12 L11,12 L11,13 L13,13 L13,12 Z M9,3 L7,3 L7,4 L9,4 L9,3 Z"
                    id="形状结合" fill="#888888" fill-rule="nonzero"
                    transform="translate(8.000000, 8.000000) rotate(-90.000000) translate(-8.000000, -8.000000) "></path>
        </g>
    </g>
</svg>