<?xml version="1.0" encoding="utf-8"?>
<!-- Generator: Adobe Illustrator 23.0.1, SVG Export Plug-In . SVG Version: 6.00 Build 0)  -->
<!DOCTYPE svg PUBLIC "-//W3C//DTD SVG 1.1//EN" "http://www.w3.org/Graphics/SVG/1.1/DTD/svg11.dtd" [
        <!ENTITY ns_extend "http://ns.adobe.com/Extensibility/1.0/">
        <!ENTITY ns_ai "http://ns.adobe.com/AdobeIllustrator/10.0/">
        <!ENTITY ns_graphs "http://ns.adobe.com/Graphs/1.0/">
        <!ENTITY ns_vars "http://ns.adobe.com/Variables/1.0/">
        <!ENTITY ns_imrep "http://ns.adobe.com/ImageReplacement/1.0/">
        <!ENTITY ns_sfw "http://ns.adobe.com/SaveForWeb/1.0/">
        <!ENTITY ns_custom "http://ns.adobe.com/GenericCustomNamespace/1.0/">
        <!ENTITY ns_adobe_xpath "http://ns.adobe.com/XPath/1.0/">
        ]>
<svg version="1.1"
        xmlns="http://www.w3.org/2000/svg" x="0px" y="0px" width="68px" height="88px"
        viewBox="0 0 68 88" style="enable-background:new 0 0 68 88;" xml:space="preserve">
<style type="text/css">
	.st0{display:none;}
	.st1{display:inline;}
	.st2{fill:none;}
	.st3{fill:#00A4FF;}
	.st4{font-family:'Roboto-Bold';}
	.st5{font-size:12px;}
	.st6{fill-rule:evenodd;clip-rule:evenodd;fill:#00A4FF;}
	.st7{fill:#00A4FF;stroke:#00A4FF;stroke-width:1.4;stroke-miterlimit:10;}
	.st8{display:inline;fill:#00A4FF;}
</style>
    <metadata>
	<sfw xmlns="&ns_sfw;">
		<slices></slices>
        <sliceSourceBounds bottomLeftOrigin="true" height="88" width="16383" x="-8157"
                y="0"></sliceSourceBounds>
	</sfw>
</metadata>
    <g id="图层_1" class="st0">
	<g id="Page-1" class="st1">
		<g transform="translate(-708.000000, -525.000000)">
			<g id="API网关" transform="translate(708.000000, 525.000000)">
				<polygon id="Rectangle" class="st2" points="0,0 68,0 68,88 0,88 				"/>
                <text transform="matrix(1 0 0 1 17 16)" class="st3 st4 st5">APIGW</text>
                <g id="Path" transform="translate(1.000000, 21.125000)">
					<path class="st6" d="M33,60.5C18.3,60.6,6.1,49.1,5.3,34.4S15.4,6.9,30,5.4s27.9,8.7,30.2,23.2h4.2C62.2,12,47.5,0,30.7,1.1
						S1,16.1,1,32.9s13,30.7,29.7,31.8c16.7,1.1,31.5-10.9,33.7-27.6h-4.2C58.2,50.6,46.6,60.5,33,60.5z"/>
                    <polygon class="st6"
                            points="16,22.2 50,22.2 50,26.5 16,26.5 					"/>
                    <polygon class="st6"
                            points="16,45.6 50,45.6 50,49.9 16,49.9 					"/>
                    <polygon class="st6"
                            points="16,22.2 20.2,22.2 20.2,28.6 16,28.6 					"/>
                    <polygon class="st6"
                            points="16,43.5 20.2,43.5 20.2,49.9 16,49.9 					"/>
                    <polygon class="st6"
                            points="45.8,43.5 50,43.5 50,49.9 45.8,49.9 					"/>
                    <polygon class="st6"
                            points="45.8,22.2 50,22.2 50,28.6 45.8,28.6 					"/>
                    <polygon class="st6"
                            points="22.4,13.8 26.6,13.8 26.6,22.2 22.4,22.2 					"/>
                    <polygon class="st6"
                            points="39.4,13.8 43.6,13.8 43.6,22.2 39.4,22.2 					"/>
                    <polygon class="st6"
                            points="18.1,30.8 22.4,30.8 22.4,41.4 18.1,41.4 					"/>
                    <polygon class="st6"
                            points="24.5,30.8 28.8,30.8 28.8,41.4 24.5,41.4 					"/>
                    <polygon class="st6"
                            points="20.2,30.8 26.6,30.8 26.6,32.9 20.2,32.9 					"/>
                    <polygon class="st6"
                            points="20.2,35 26.6,35 26.6,37.1 20.2,37.1 					"/>
                    <polygon class="st6"
                            points="33,30.8 41.5,30.8 41.5,32.9 33,32.9 					"/>
                    <polygon class="st6"
                            points="30.9,35 39.4,35 39.4,37.1 30.9,37.1 					"/>
                    <polygon class="st6"
                            points="30.9,30.8 35.1,30.8 35.1,41.4 30.9,41.4 					"/>
                    <polygon class="st6"
                            points="37.2,30.8 41.5,30.8 41.5,37.1 37.2,37.1 					"/>
                    <polygon class="st6"
                            points="43.6,30.8 47.9,30.8 47.9,41.4 43.6,41.4 					"/>
				</g>
			</g>
		</g>
	</g>
</g>
    <g id="图层_2" class="st0">
	<g class="st1">
		<path class="st7"
                d="M55.1,65.6c0-1.3-1-2.3-2.3-2.3c-1.3,0-2.3,1-2.3,2.3c0,1.3,1,2.3,2.3,2.3C54.1,67.9,55.1,66.9,55.1,65.6z"/>
        <path class="st7" d="M62.5,71.1c0-1.2-0.1-3.2-0.3-4.5c-0.7-6.6-2.7-10.1-5.9-12.8c-2.3-2.2-5.5-3.2-8.7-2.5
			c-4.7,0.5-9.3,1.6-13.7,3.2v2.9c2.6-0.9,4.9-1.5,6.8-2c-1,1.6-1.6,3.5-1.6,5.5c-0.1,3.8,0.1,7.1,3.7,10.7c0.9-0.4,1.7-0.9,2.6-1.5
			c-2.4-2.3-3.7-5.6-3.5-8.9c0.1-3,1.7-6.2,3.8-7.1c0,0,0.1,0,0.1,0c1-0.2,1.5-0.3,1.5-0.3l0.9-0.1v0c0.3,0,0.5,0,0.8,0
			c2.1-0.1,4.1,0.5,5.7,1.8c3.5,2.8,4.6,7.1,4.9,11.4c0.1,1.6,0.2,4,0.2,5c-3.7,0.8-7.6,0.9-11.4,0.2c-1,0.8-2.1,1.5-3.2,2
			c0,0,0,7.9,0,7.9l-4.3,0v-5.5c-2.3,0.9-4.7,1.6-7.1,2.1v2.7c1.5-0.3,2.9-0.6,4.3-1.1v4.5h9.9v-9.9c3.9,0.6,7.8,0.6,11.7-0.2
			c0,2.9-0.5,5.3-1.4,6.5c-0.4,0.5-1,0.8-1.6,0.8c-1,0-1.7-1.3-1.7-2.3v-1.9h-2.8v1.9c0,2.9,1.6,5.1,4.5,5.1
			c1.3,0.1,2.5-0.4,3.4-1.4c1.4-1.5,2.3-4.2,2.3-9.5c0.9-0.3,1.8-0.8,2.6-1.3v-3.1C64.3,70.1,63.4,70.7,62.5,71.1z"/>
        <path class="st7" d="M29.7,46.6c10.6,0,19.7-2.6,24.1-6.3v6.3h2.8V35.2c0-6.3-12-11.3-26.9-11.3C14.9,23.9,2.8,29,2.8,35.2v39.7
			c0,6.1,11.3,11,25.5,11.3v-2.8c-13.9-0.3-22.7-5.1-22.7-8.5v-7.7c4.2,3.6,12.7,6.1,22.7,6.3v-2.8c-13.9-0.3-22.7-5.1-22.7-8.5V53
			c4.2,3.6,12.7,6.1,22.7,6.3v-2.8C14.4,56.2,5.7,51.3,5.7,48v-7.7C10.1,44,19.2,46.6,29.7,46.6z M29.7,26.7c14.7,0,24.1,5,24.1,8.5
			s-9.4,8.5-24.1,8.5c-14.7,0-24.1-5-24.1-8.5S15,26.7,29.7,26.7z"/>
	</g>
        <text transform="matrix(1 0 0 1 1.7996 15.9997)" class="st8 st4 st5">PostgreSQL</text>
</g>
    <g id="图层_3">
	<path class="st3" d="M34.2,72.8c-2.7,3.1-2.6,4.9,0,8.1c2.7-3.6,2-5,1.1-6.5C35.1,74,34.6,73.2,34.2,72.8 M39.3,72.8
		c1.8,3.5,1.7,7-3.5,12.8l-1.6,1.8l-1.6-1.8c-3.5-3.8-6.3-7.8-3.6-12.8 M40.4,63.8l6,8.4h2.2L50.7,62c0.5-2.2-0.5-4.5-2.3-5.8
		l-3.3-2.4l0-11.3c0-3.5-1.4-6.9-3.8-9.3l-6.8-6.8c-0.1-0.1-0.3-0.1-0.4,0l-6.8,6.8c-2.5,2.5-3.9,5.8-3.9,9.3v11.3l-3.3,2.4
		c-0.3,0.2-0.5,0.4-0.7,0.6c-1.4,1.4-2,3.3-1.6,5.2l2.1,10.2l2.2,0l6-8.4 M33.2,63.8l-9,12.7l-7.9,0l-2.8-13.6
		c-0.7-3.3,0.3-6.7,2.7-9.1c0.4-0.4,0.8-0.8,1.3-1.1l1.5-1.1v-9.1c0-4.6,1.8-9,5.1-12.3l6.8-6.8c1.8-1.8,4.6-1.8,6.4,0l6.8,6.8
		c3.2,3.2,5.1,7.7,5.1,12.3l0,9.1l1.5,1.1c3.2,2.3,4.8,6.3,4,10.1l-2.8,13.6h-7.9l-9-12.7"/>
        <circle class="st3" cx="34.2" cy="41.5" r="4"/>
        <circle class="st3" cx="34.2" cy="53.3" r="4"/>
        <text transform="matrix(1 0 0 1 6.6777 15.9999)" class="st3 st4 st5">Rocketmq</text>
</g>
</svg>
