<?xml version="1.0" encoding="utf-8"?>
<!-- Generator: Adobe Illustrator 23.0.3, SVG Export Plug-In . SVG Version: 6.00 Build 0)  -->
<svg version="1.1" id="图层_1" xmlns="http://www.w3.org/2000/svg" x="0px" y="0px"
        width="88px" height="88px" viewBox="0 0 88 88" style="enable-background:new 0 0 88 88;"
        xml:space="preserve">
<style type="text/css">
	.st0{fill:none;}
	.st1{enable-background:new    ;}
	.st2{fill:#00A4FF;}
	.st3{fill-rule:evenodd;clip-rule:evenodd;fill:#00A4FF;}
</style>
    <title>TSF</title>
    <desc>Created with Sketch.</desc>
    <g id="Page-1">
	<g transform="translate(-972.000000, -525.000000)">
		<g id="腾讯分布式服务框架-01" transform="translate(972.000000, 525.000000)">
			<polygon id="Rectangle" class="st0" points="10,0 78,0 78,88 10,88 			"/>
            <g class="st1">
				<path class="st2" d="M35.5,16V8.9h-2.5V7.4h6.8v1.5h-2.5V16H35.5z"/>
                <path class="st2" d="M40.4,13.2l1.7-0.2c0.1,0.6,0.3,1,0.6,1.2s0.7,0.4,1.3,0.4c0.6,0,1-0.1,1.3-0.4s0.4-0.5,0.4-0.8
					c0-0.2-0.1-0.4-0.2-0.5s-0.3-0.3-0.6-0.4c-0.2-0.1-0.7-0.2-1.4-0.4c-0.9-0.2-1.6-0.5-2-0.8c-0.5-0.5-0.8-1-0.8-1.7
					c0-0.4,0.1-0.8,0.4-1.2s0.6-0.7,1.1-0.9s1-0.3,1.7-0.3c1.1,0,1.9,0.2,2.4,0.7s0.8,1.1,0.9,1.9l-1.7,0.1c-0.1-0.4-0.2-0.8-0.5-1
					s-0.6-0.3-1.1-0.3c-0.5,0-0.9,0.1-1.2,0.3c-0.2,0.1-0.3,0.3-0.3,0.5c0,0.2,0.1,0.4,0.3,0.5c0.2,0.2,0.8,0.4,1.6,0.6
					s1.5,0.4,1.9,0.6s0.7,0.5,0.9,0.9s0.3,0.8,0.3,1.4c0,0.5-0.1,1-0.4,1.4s-0.7,0.7-1.2,1s-1.1,0.3-1.9,0.3c-1.1,0-1.9-0.3-2.5-0.8
					S40.5,14.2,40.4,13.2z"/>
                <path class="st2" d="M48.9,16V7.4h5.9v1.5h-4.2v2h3.6v1.5h-3.6V16H48.9z"/>
			</g>
            <rect x="22.8" y="24.2" class="st3" width="51" height="4.2"/>
            <rect x="14.2" y="32.8" class="st3" width="4.2" height="31.9"/>
            <polygon id="Path" class="st3"
                    points="22.8,24.2 14.2,32.8 18.5,34.9 24.9,28.5 			"/>
            <rect x="22.8" y="79.5" class="st3" width="42.5" height="4.2"/>
            <rect x="14.2" y="64.6" class="st3" width="4.2" height="10.6"/>
            <rect x="69.5" y="34.9" class="st3" width="4.2" height="40.4"/>
            <polygon class="st3" points="22.8,83.8 14.2,75.2 18.5,73.1 24.9,79.5 			"/>
            <polygon class="st3" points="65.2,83.8 73.8,75.2 69.5,73.1 63.1,79.5 			"/>
            <polygon class="st3" points="27,49.8 44,58.2 44,54 27,45.5 			"/>
            <polygon class="st3" points="44,54 61,45.5 61,49.8 44,58.2 			"/>
            <polygon class="st3" points="27,58.2 44,49.8 44,54 27,62.5 			"/>
            <polygon class="st3" points="44,54 61,62.5 61,58.2 44,49.8 			"/>
            <circle id="Oval" class="st3" cx="44" cy="39.1" r="4.2"/>
            <path class="st3" d="M37.6,40.2L27,45.5v4.2l12.3-6.2C38.5,42.6,37.9,41.5,37.6,40.2z"/>
            <path class="st3" d="M50.4,40.2c-0.2,1.3-0.8,2.5-1.7,3.4L61,49.8v-4.2L50.4,40.2z"/>
            <circle class="st3" cx="44" cy="68.9" r="4.2"/>
            <path class="st3" d="M39.3,64.4L27,58.2v4.2l10.6,5.3C37.9,66.5,38.5,65.4,39.3,64.4z"/>
            <path class="st3" d="M48.7,64.4c0.9,0.9,1.5,2.1,1.7,3.4L61,62.5v-4.2L48.7,64.4z"/>
		</g>
	</g>
</g>
</svg>
