<?xml version="1.0" encoding="utf-8"?>
<!-- Generator: Adobe Illustrator 23.0.3, SVG Export Plug-In . SVG Version: 6.00 Build 0)  -->
<svg version="1.1" id="图层_1" xmlns="http://www.w3.org/2000/svg" x="0px" y="0px"
        width="88px" height="88px" viewBox="0 0 88 88" style="enable-background:new 0 0 88 88;"
        xml:space="preserve">
<style type="text/css">
	.st0{fill:none;}
	.st1{enable-background:new    ;}
	.st2{fill:#00A4FF;}
	.st3{fill-rule:evenodd;clip-rule:evenodd;fill:#00A4FF;}
</style>
    <title>USER</title>
    <desc>Created with Sketch.</desc>
    <g id="Page-1">
	<g transform="translate(-708.000000, -618.000000)">
		<g id="USER" transform="translate(708.000000, 618.000000)">
			<polygon id="Rectangle" class="st0" points="10,0 78,0 78,88 10,88 			"/>
            <g class="st1">
				<path class="st2" d="M28.2,7.4h1.7v4.7c0,0.7,0,1.2,0.1,1.4c0.1,0.4,0.3,0.6,0.5,0.8s0.7,0.3,1.1,0.3c0.5,0,0.9-0.1,1.1-0.3
					s0.4-0.4,0.5-0.7s0.1-0.8,0.1-1.5V7.4H35v4.5c0,1,0,1.8-0.1,2.2s-0.3,0.8-0.5,1.1s-0.6,0.5-1,0.7s-1,0.3-1.7,0.3
					c-0.8,0-1.4-0.1-1.9-0.3s-0.8-0.4-1-0.7s-0.4-0.6-0.5-1c-0.1-0.5-0.2-1.2-0.2-2.2V7.4z"/>
                <path class="st2" d="M36.4,13.2l1.7-0.2c0.1,0.6,0.3,1,0.6,1.2s0.7,0.4,1.3,0.4c0.6,0,1-0.1,1.3-0.4s0.4-0.5,0.4-0.8
					c0-0.2-0.1-0.4-0.2-0.5s-0.3-0.3-0.6-0.4c-0.2-0.1-0.7-0.2-1.4-0.4c-0.9-0.2-1.6-0.5-2-0.8c-0.5-0.5-0.8-1-0.8-1.7
					c0-0.4,0.1-0.8,0.4-1.2s0.6-0.7,1.1-0.9s1-0.3,1.7-0.3c1.1,0,1.9,0.2,2.4,0.7s0.8,1.1,0.9,1.9l-1.7,0.1c-0.1-0.4-0.2-0.8-0.5-1
					s-0.6-0.3-1.1-0.3c-0.5,0-0.9,0.1-1.2,0.3c-0.2,0.1-0.3,0.3-0.3,0.5c0,0.2,0.1,0.4,0.3,0.5c0.2,0.2,0.8,0.4,1.6,0.6
					s1.5,0.4,1.9,0.6s0.7,0.5,0.9,0.9s0.3,0.8,0.3,1.4c0,0.5-0.1,1-0.4,1.4s-0.7,0.7-1.2,1s-1.1,0.3-1.9,0.3c-1.1,0-1.9-0.3-2.5-0.8
					S36.5,14.2,36.4,13.2z"/>
                <path class="st2" d="M44.9,16V7.4h6.4v1.5h-4.6v1.9h4.3v1.4h-4.3v2.3h4.8V16H44.9z"/>
                <path class="st2" d="M52.9,16V7.4h3.7c0.9,0,1.6,0.1,2,0.2s0.7,0.4,1,0.8s0.4,0.8,0.4,1.4c0,0.6-0.2,1.2-0.6,1.6
					s-0.9,0.7-1.7,0.8c0.4,0.2,0.7,0.5,0.9,0.7s0.6,0.7,1,1.4l1,1.7h-2.1l-1.3-1.9c-0.4-0.7-0.8-1.1-0.9-1.3s-0.3-0.3-0.5-0.4
					s-0.5-0.1-0.9-0.1h-0.4V16H52.9z M54.6,11h1.3c0.8,0,1.4,0,1.6-0.1s0.4-0.2,0.5-0.4s0.2-0.4,0.2-0.6c0-0.3-0.1-0.5-0.2-0.7
					s-0.4-0.3-0.7-0.3c-0.1,0-0.6,0-1.3,0h-1.4V11z"/>
			</g>
            <path id="Fill-1" class="st3" d="M16.6,23.5v38.1h-0.2h-4.2v4.3v4.2v4.2h4.2h55.2h4.2V61.6h-4.1V23.5H16.6z M20.8,61.6h46.7V27.8
				H20.8V61.6z M48.3,68v-2.1h23.4v4.2H16.4v-4.2h23.4V68H48.3z"/>
		</g>
	</g>
</g>
</svg>
